<?plantuml 1.2026.2?><svg xmlns="http://www.w3.org/2000/svg" xmlns:xlink="http://www.w3.org/1999/xlink" contentStyleType="text/css" data-diagram-type="DESCRIPTION" height="560px" preserveAspectRatio="none" style="width:1252px;height:560px;background:#FFFFFF;" version="1.1" viewBox="0 0 1252 560" width="1252px" zoomAndPan="magnify"><title>Flow F-008: Secure Backend Component View</title><defs/><g><g class="title" data-source-line="1"><text fill="#000000" font-family="sans-serif" font-size="14" font-weight="bold" lengthAdjust="spacing" textLength="361.2383" x="438.3809" y="22.9951">Flow F-008: Secure Backend Component View</text></g><!--cluster Interfaces (REST)--><g class="cluster" data-qualified-name="Interfaces .REST." data-source-line="4" id="ent0002"><path d="M119.5,43.2969 L258.0801,43.2969 A3.75,3.75 0 0 1 260.5801,45.7969 L267.5801,65.5938 L831.5,65.5938 A2.5,2.5 0 0 1 834,68.0938 L834,128.0869 A2.5,2.5 0 0 1 831.5,130.5869 L119.5,130.5869 A2.5,2.5 0 0 1 117,128.0869 L117,45.7969 A2.5,2.5 0 0 1 119.5,43.2969" fill="none" style="stroke:#000000;stroke-width:1.5;"/><line style="stroke:#000000;stroke-width:1.5;" x1="117" x2="267.5801" y1="65.5938" y2="65.5938"/><text fill="#000000" font-family="sans-serif" font-size="14" font-weight="bold" lengthAdjust="spacing" textLength="137.5801" x="121" y="58.292">Interfaces (REST)</text></g><!--cluster Security Boundary--><g class="cluster" data-qualified-name="Security Boundary" data-source-line="11" id="ent0007"><path d="M8.5,154.5869 L155.4609,154.5869 A3.75,3.75 0 0 1 157.9609,157.0869 L164.9609,176.8838 L193.5,176.8838 A2.5,2.5 0 0 1 196,179.3838 L196,335.6869 A2.5,2.5 0 0 1 193.5,338.1869 L8.5,338.1869 A2.5,2.5 0 0 1 6,335.6869 L6,157.0869 A2.5,2.5 0 0 1 8.5,154.5869" fill="none" style="stroke:#000000;stroke-width:1.5;"/><line style="stroke:#000000;stroke-width:1.5;" x1="6" x2="164.9609" y1="176.8838" y2="176.8838"/><text fill="#000000" font-family="sans-serif" font-size="14" font-weight="bold" lengthAdjust="spacing" textLength="145.9609" x="10" y="169.582">Security Boundary</text></g><!--cluster Application Services--><g class="cluster" data-qualified-name="Application Services" data-source-line="16" id="ent0010"><path d="M222.5,154.5869 L384.2061,154.5869 A3.75,3.75 0 0 1 386.7061,157.0869 L393.7061,176.8838 L881.5,176.8838 A2.5,2.5 0 0 1 884,179.3838 L884,335.6869 A2.5,2.5 0 0 1 881.5,338.1869 L222.5,338.1869 A2.5,2.5 0 0 1 220,335.6869 L220,157.0869 A2.5,2.5 0 0 1 222.5,154.5869" fill="none" style="stroke:#000000;stroke-width:1.5;"/><line style="stroke:#000000;stroke-width:1.5;" x1="220" x2="393.7061" y1="176.8838" y2="176.8838"/><text fill="#000000" font-family="sans-serif" font-size="14" font-weight="bold" lengthAdjust="spacing" textLength="160.7061" x="224" y="169.582">Application Services</text></g><!--cluster Infrastructure Adapters--><g class="cluster" data-qualified-name="Infrastructure Adapters" data-source-line="24" id="ent0016"><path d="M47.5,362.1869 L235.9961,362.1869 A3.75,3.75 0 0 1 238.4961,364.6869 L245.4961,384.4838 L1242.5,384.4838 A2.5,2.5 0 0 1 1245,386.9838 L1245,446.9769 A2.5,2.5 0 0 1 1242.5,449.4769 L47.5,449.4769 A2.5,2.5 0 0 1 45,446.9769 L45,364.6869 A2.5,2.5 0 0 1 47.5,362.1869" fill="none" style="stroke:#000000;stroke-width:1.5;"/><line style="stroke:#000000;stroke-width:1.5;" x1="45" x2="245.4961" y1="384.4838" y2="384.4838"/><text fill="#000000" font-family="sans-serif" font-size="14" font-weight="bold" lengthAdjust="spacing" textLength="187.4961" x="49" y="377.182">Infrastructure Adapters</text></g><!--entity AuthController--><g class="entity" data-qualified-name="Interfaces .REST..AuthController" data-source-line="5" id="ent0003"><rect fill="#F1F1F1" height="36.2969" rx="2.5" ry="2.5" style="stroke:#181818;stroke-width:0.5;" width="121.9854" x="290.01" y="78.2969"/><text fill="#000000" font-family="sans-serif" font-size="14" lengthAdjust="spacing" textLength="101.9854" x="300.01" y="101.292">AuthController</text></g><!--entity UserController--><g class="entity" data-qualified-name="Interfaces .REST..UserController" data-source-line="6" id="ent0004"><rect fill="#F1F1F1" height="36.2969" rx="2.5" ry="2.5" style="stroke:#181818;stroke-width:0.5;" width="121.083" x="133.46" y="78.2969"/><text fill="#000000" font-family="sans-serif" font-size="14" lengthAdjust="spacing" textLength="101.083" x="143.46" y="101.292">UserController</text></g><!--entity DocumentController--><g class="entity" data-qualified-name="Interfaces .REST..DocumentController" data-source-line="7" id="ent0005"><rect fill="#F1F1F1" height="36.2969" rx="2.5" ry="2.5" style="stroke:#181818;stroke-width:0.5;" width="161.7021" x="656.15" y="78.2969"/><text fill="#000000" font-family="sans-serif" font-size="14" lengthAdjust="spacing" textLength="141.7021" x="666.15" y="101.292">DocumentController</text></g><!--entity DepartmentController--><g class="entity" data-qualified-name="Interfaces .REST..DepartmentController" data-source-line="8" id="ent0006"><rect fill="#F1F1F1" height="36.2969" rx="2.5" ry="2.5" style="stroke:#181818;stroke-width:0.5;" width="173.8906" x="447.05" y="78.2969"/><text fill="#000000" font-family="sans-serif" font-size="14" lengthAdjust="spacing" textLength="153.8906" x="457.05" y="101.292">DepartmentController</text></g><!--entity JWT Filter--><g class="entity" data-qualified-name="Security Boundary.JWT Filter" data-source-line="12" id="ent0008"><rect fill="#F1F1F1" height="36.2969" rx="2.5" ry="2.5" style="stroke:#181818;stroke-width:0.5;" width="86.6641" x="93.67" y="189.5869"/><text fill="#000000" font-family="sans-serif" font-size="14" lengthAdjust="spacing" textLength="66.6641" x="103.67" y="212.582">JWT Filter</text></g><!--entity Authorization Policy--><g class="entity" data-qualified-name="Security Boundary.Authorization Policy" data-source-line="13" id="ent0009"><rect fill="#F1F1F1" height="36.2969" rx="2.5" ry="2.5" style="stroke:#181818;stroke-width:0.5;" width="158.9883" x="21.51" y="285.8869"/><text fill="#000000" font-family="sans-serif" font-size="14" lengthAdjust="spacing" textLength="138.9883" x="31.51" y="308.882">Authorization Policy</text></g><!--entity Auth Service--><g class="entity" data-qualified-name="Application Services.Auth Service" data-source-line="17" id="ent0011"><rect fill="#F1F1F1" height="36.2969" rx="2.5" ry="2.5" style="stroke:#181818;stroke-width:0.5;" width="109.0039" x="379.5" y="189.5869"/><text fill="#000000" font-family="sans-serif" font-size="14" lengthAdjust="spacing" textLength="89.0039" x="389.5" y="212.582">Auth Service</text></g><!--entity User Service--><g class="entity" data-qualified-name="Application Services.User Service" data-source-line="18" id="ent0012"><rect fill="#F1F1F1" height="36.2969" rx="2.5" ry="2.5" style="stroke:#181818;stroke-width:0.5;" width="108.1016" x="235.95" y="189.5869"/><text fill="#000000" font-family="sans-serif" font-size="14" lengthAdjust="spacing" textLength="88.1016" x="245.95" y="212.582">User Service</text></g><!--entity Document Service--><g class="entity" data-qualified-name="Application Services.Document Service" data-source-line="19" id="ent0013"><rect fill="#F1F1F1" height="36.2969" rx="2.5" ry="2.5" style="stroke:#181818;stroke-width:0.5;" width="148.7207" x="719.64" y="189.5869"/><text fill="#000000" font-family="sans-serif" font-size="14" lengthAdjust="spacing" textLength="128.7207" x="729.64" y="212.582">Document Service</text></g><!--entity Department Service--><g class="entity" data-qualified-name="Application Services.Department Service" data-source-line="20" id="ent0014"><rect fill="#F1F1F1" height="36.2969" rx="2.5" ry="2.5" style="stroke:#181818;stroke-width:0.5;" width="160.9092" x="523.55" y="189.5869"/><text fill="#000000" font-family="sans-serif" font-size="14" lengthAdjust="spacing" textLength="140.9092" x="533.55" y="212.582">Department Service</text></g><!--entity Audit Service--><g class="entity" data-qualified-name="Application Services.Audit Service" data-source-line="21" id="ent0015"><rect fill="#F1F1F1" height="36.2969" rx="2.5" ry="2.5" style="stroke:#181818;stroke-width:0.5;" width="112.9072" x="235.55" y="285.8869"/><text fill="#000000" font-family="sans-serif" font-size="14" lengthAdjust="spacing" textLength="92.9072" x="245.55" y="308.882">Audit Service</text></g><!--entity User Repository Adapter--><g class="entity" data-qualified-name="Infrastructure Adapters.User Repository Adapter" data-source-line="25" id="ent0017"><rect fill="#F1F1F1" height="36.2969" rx="2.5" ry="2.5" style="stroke:#181818;stroke-width:0.5;" width="191.6709" x="292.16" y="397.1869"/><text fill="#000000" font-family="sans-serif" font-size="14" lengthAdjust="spacing" textLength="171.6709" x="302.16" y="420.182">User Repository Adapter</text></g><!--entity Department Repository Adapter--><g class="entity" data-qualified-name="Infrastructure Adapters.Department Repository Adapter" data-source-line="26" id="ent0018"><rect fill="#F1F1F1" height="36.2969" rx="2.5" ry="2.5" style="stroke:#181818;stroke-width:0.5;" width="244.4785" x="518.76" y="397.1869"/><text fill="#000000" font-family="sans-serif" font-size="14" lengthAdjust="spacing" textLength="224.4785" x="528.76" y="420.182">Department Repository Adapter</text></g><!--entity Document Repository Adapter--><g class="entity" data-qualified-name="Infrastructure Adapters.Document Repository Adapter" data-source-line="27" id="ent0019"><rect fill="#F1F1F1" height="36.2969" rx="2.5" ry="2.5" style="stroke:#181818;stroke-width:0.5;" width="232.29" x="797.85" y="397.1869"/><text fill="#000000" font-family="sans-serif" font-size="14" lengthAdjust="spacing" textLength="212.29" x="807.85" y="420.182">Document Repository Adapter</text></g><!--entity Audit Repository Adapter--><g class="entity" data-qualified-name="Infrastructure Adapters.Audit Repository Adapter" data-source-line="28" id="ent0020"><rect fill="#F1F1F1" height="36.2969" rx="2.5" ry="2.5" style="stroke:#181818;stroke-width:0.5;" width="196.4766" x="60.76" y="397.1869"/><text fill="#000000" font-family="sans-serif" font-size="14" lengthAdjust="spacing" textLength="176.4766" x="70.76" y="420.182">Audit Repository Adapter</text></g><!--entity File Storage Adapter--><g class="entity" data-qualified-name="Infrastructure Adapters.File Storage Adapter" data-source-line="29" id="ent0021"><rect fill="#F1F1F1" height="36.2969" rx="2.5" ry="2.5" style="stroke:#181818;stroke-width:0.5;" width="163.9102" x="1065.04" y="397.1869"/><text fill="#000000" font-family="sans-serif" font-size="14" lengthAdjust="spacing" textLength="143.9102" x="1075.04" y="420.182">File Storage Adapter</text></g><!--entity DB--><g class="entity" data-qualified-name="DB" data-source-line="32" id="ent0022"><path d="M464.62,507.9769 C464.62,497.9769 514.9965,497.9769 514.9965,497.9769 C514.9965,497.9769 565.3729,497.9769 565.3729,507.9769 L565.3729,533.2738 C565.3729,543.2738 514.9965,543.2738 514.9965,543.2738 C514.9965,543.2738 464.62,543.2738 464.62,533.2738 L464.62,507.9769" fill="#F1F1F1" style="stroke:#181818;stroke-width:0.5;"/><path d="M464.62,507.9769 C464.62,517.9769 514.9965,517.9769 514.9965,517.9769 C514.9965,517.9769 565.3729,517.9769 565.3729,507.9769" fill="none" style="stroke:#181818;stroke-width:0.5;"/><text fill="#000000" font-family="sans-serif" font-size="14" lengthAdjust="spacing" textLength="80.7529" x="474.62" y="534.972">PostgreSQL</text></g><!--entity FS--><g class="entity" data-qualified-name="FS" data-source-line="33" id="ent0023"><path d="M1072.17,493.4769 L1113.17,493.4769 A3.75,3.75 0 0 1 1115.67,495.9769 L1122.67,514.4769 L1221.8233,514.4769 A2.5,2.5 0 0 1 1224.3233,516.9769 L1224.3233,545.2738 A2.5,2.5 0 0 1 1221.8233,547.7738 L1072.17,547.7738 A2.5,2.5 0 0 1 1069.67,545.2738 L1069.67,495.9769 A2.5,2.5 0 0 1 1072.17,493.4769" fill="#F1F1F1" style="stroke:#181818;stroke-width:0.5;"/><line style="stroke:#181818;stroke-width:0.5;" x1="1069.67" x2="1122.67" y1="514.4769" y2="514.4769"/><text fill="#000000" font-family="sans-serif" font-size="14" lengthAdjust="spacing" textLength="124.6533" x="1079.67" y="534.472">Local File Storage</text></g><!--link AuthController to JWT Filter--><g class="link" data-entity-1="ent0003" data-entity-2="ent0008" data-link-type="dependency" data-source-line="35" id="lnk24"><path d="M322.73,115.0569 C308.1,123.4169 289.64,132.8169 272,138.5869 C249.78,145.8669 241.63,137.7069 220,146.5869 C195.47,156.6669 175.8937,171.4338 160.0337,185.3238" fill="none" id="AuthController-to-JWT Filter" style="stroke:#181818;stroke-width:1;"/><polygon fill="#181818" points="155.52,189.2769,164.9259,186.3564,159.2814,185.9827,159.6552,180.3382,155.52,189.2769" style="stroke:#181818;stroke-width:1;"/></g><!--link UserController to JWT Filter--><g class="link" data-entity-1="ent0004" data-entity-2="ent0008" data-link-type="dependency" data-source-line="36" id="lnk25"><path d="M184.84,114.9969 C174.21,135.3969 159.5338,163.5265 148.9138,183.8965" fill="none" id="UserController-to-JWT Filter" style="stroke:#181818;stroke-width:1;"/><polygon fill="#181818" points="146.14,189.2169,153.8476,183.0855,148.4515,184.7833,146.7538,179.3872,146.14,189.2169" style="stroke:#181818;stroke-width:1;"/></g><!--link DocumentController to JWT Filter--><g class="link" data-entity-1="ent0005" data-entity-2="ent0008" data-link-type="dependency" data-source-line="37" id="lnk26"><path d="M703.65,114.9869 C684.91,123.8969 660.77,133.8169 638,138.5869 C592.53,148.1169 264.05,131.8369 220,146.5869 C194.35,155.1769 174.2987,170.6962 158.6687,185.1962" fill="none" id="DocumentController-to-JWT Filter" style="stroke:#181818;stroke-width:1;"/><polygon fill="#181818" points="154.27,189.2769,163.5884,186.0883,157.9356,185.8763,158.1476,180.2234,154.27,189.2769" style="stroke:#181818;stroke-width:1;"/></g><!--link DepartmentController to JWT Filter--><g class="link" data-entity-1="ent0006" data-entity-2="ent0008" data-link-type="dependency" data-source-line="38" id="lnk27"><path d="M498,115.0169 C478.14,123.8169 452.77,133.6269 429,138.5869 C383.5,148.0869 263.93,131.4069 220,146.5869 C194.6,155.3669 174.7093,170.6586 159.0393,185.0486" fill="none" id="DepartmentController-to-JWT Filter" style="stroke:#181818;stroke-width:1;"/><polygon fill="#181818" points="154.62,189.1069,163.9545,185.9656,158.3027,185.725,158.5434,180.0732,154.62,189.1069" style="stroke:#181818;stroke-width:1;"/></g><!--link JWT Filter to Authorization Policy--><g class="link" data-entity-1="ent0008" data-entity-2="ent0009" data-link-type="dependency" data-source-line="40" id="lnk28"><path d="M130.4,226.0369 C123.94,242.9369 116.3121,262.9423 109.8221,279.9223" fill="none" id="JWT Filter-to-Authorization Policy" style="stroke:#181818;stroke-width:1;"/><polygon fill="#181818" points="107.68,285.5269,114.6296,278.5481,109.4651,280.8564,107.1568,275.6919,107.68,285.5269" style="stroke:#181818;stroke-width:1;"/></g><!--link AuthController to Auth Service--><g class="link" data-entity-1="ent0003" data-entity-2="ent0011" data-link-type="dependency" data-source-line="42" id="lnk29"><path d="M364.34,114.9969 C379.82,135.3969 401.5897,164.0698 417.0697,184.4398" fill="none" id="AuthController-to-Auth Service" style="stroke:#181818;stroke-width:1;"/><polygon fill="#181818" points="420.7,189.2169,418.4393,179.631,417.6747,185.236,412.0698,184.4714,420.7,189.2169" style="stroke:#181818;stroke-width:1;"/></g><!--link UserController to User Service--><g class="link" data-entity-1="ent0004" data-entity-2="ent0012" data-link-type="dependency" data-source-line="43" id="lnk30"><path d="M209.42,114.9969 C227.34,135.3969 252.7607,164.3387 270.6507,184.7087" fill="none" id="UserController-to-User Service" style="stroke:#181818;stroke-width:1;"/><polygon fill="#181818" points="274.61,189.2169,271.6765,179.815,271.3106,185.4601,265.6656,185.0941,274.61,189.2169" style="stroke:#181818;stroke-width:1;"/></g><!--link DocumentController to Document Service--><g class="link" data-entity-1="ent0005" data-entity-2="ent0013" data-link-type="dependency" data-source-line="44" id="lnk31"><path d="M746.16,114.9969 C756.79,135.3969 771.4662,163.5265 782.0862,183.8965" fill="none" id="DocumentController-to-Document Service" style="stroke:#181818;stroke-width:1;"/><polygon fill="#181818" points="784.86,189.2169,784.2462,179.3872,782.5485,184.7833,777.1524,183.0855,784.86,189.2169" style="stroke:#181818;stroke-width:1;"/></g><!--link DepartmentController to Department Service--><g class="link" data-entity-1="ent0006" data-entity-2="ent0014" data-link-type="dependency" data-source-line="45" id="lnk32"><path d="M545.25,114.9969 C558.31,135.3969 576.4934,163.7947 589.5434,184.1647" fill="none" id="DepartmentController-to-Department Service" style="stroke:#181818;stroke-width:1;"/><polygon fill="#181818" points="592.78,189.2169,591.2931,179.4809,590.0828,185.0068,584.5569,183.7964,592.78,189.2169" style="stroke:#181818;stroke-width:1;"/></g><!--link Auth Service to User Repository Adapter--><g class="link" data-entity-1="ent0011" data-entity-2="ent0017" data-link-type="dependency" data-source-line="47" id="lnk33"><path d="M435.65,226.0969 C437.61,252.5869 439.24,304.4569 427,346.1869 C421.55,364.7569 413.5539,378.7559 404.4739,391.9359" fill="none" id="Auth Service-to-User Repository Adapter" style="stroke:#181818;stroke-width:1;"/><polygon fill="#181818" points="401.07,396.8769,409.4699,391.7347,403.9066,392.7594,402.8819,387.1961,401.07,396.8769" style="stroke:#181818;stroke-width:1;"/></g><!--link Auth Service to Audit Service--><g class="link" data-entity-1="ent0011" data-entity-2="ent0015" data-link-type="dependency" data-source-line="48" id="lnk34"><path d="M407.62,226.2569 C382.12,243.1869 348.6874,265.3864 323.2374,282.2964" fill="none" id="Auth Service-to-Audit Service" style="stroke:#181818;stroke-width:1;"/><polygon fill="#181818" points="318.24,285.6169,327.9498,283.9678,322.4045,282.8498,323.5225,277.3045,318.24,285.6169" style="stroke:#181818;stroke-width:1;"/></g><!--link User Service to User Repository Adapter--><g class="link" data-entity-1="ent0012" data-entity-2="ent0017" data-link-type="dependency" data-source-line="50" id="lnk35"><path d="M313.82,226.2869 C331.14,240.3969 353.65,261.7969 366,285.8869 C384.68,322.3269 387.8675,365.4473 388.1775,391.0973" fill="none" id="User Service-to-User Repository Adapter" style="stroke:#181818;stroke-width:1;"/><polygon fill="#181818" points="388.25,397.0969,392.1409,388.0492,388.1896,392.0972,384.1415,388.1459,388.25,397.0969" style="stroke:#181818;stroke-width:1;"/></g><!--link User Service to Audit Service--><g class="link" data-entity-1="ent0012" data-entity-2="ent0015" data-link-type="dependency" data-source-line="51" id="lnk36"><path d="M290.37,226.0369 C290.73,242.9369 291.1428,262.5482 291.5028,279.5282" fill="none" id="User Service-to-Audit Service" style="stroke:#181818;stroke-width:1;"/><polygon fill="#181818" points="291.63,285.5269,295.4383,276.4441,291.524,280.528,287.4401,276.6137,291.63,285.5269" style="stroke:#181818;stroke-width:1;"/></g><!--link Document Service to Document Repository Adapter--><g class="link" data-entity-1="ent0013" data-entity-2="ent0019" data-link-type="dependency" data-source-line="53" id="lnk37"><path d="M804.23,226.2669 C826.9,265.1069 878.1261,352.8646 900.7661,391.6646" fill="none" id="Document Service-to-Document Repository Adapter" style="stroke:#181818;stroke-width:1;"/><polygon fill="#181818" points="903.79,396.8469,902.709,387.0575,901.2701,392.5283,895.7993,391.0894,903.79,396.8469" style="stroke:#181818;stroke-width:1;"/></g><!--link Document Service to File Storage Adapter--><g class="link" data-entity-1="ent0013" data-entity-2="ent0021" data-link-type="dependency" data-source-line="54" id="lnk38"><path d="M825.04,226.1669 C873.05,253.2069 968.13,307.0569 1048,354.1869 C1071.9,368.2869 1093.686,381.5289 1113.406,393.6289" fill="none" id="Document Service-to-File Storage Adapter" style="stroke:#181818;stroke-width:1;"/><polygon fill="#181818" points="1118.52,396.7669,1112.9409,388.6506,1114.2583,394.1519,1108.757,395.4693,1118.52,396.7669" style="stroke:#181818;stroke-width:1;"/></g><!--link Document Service to Audit Service--><g class="link" data-entity-1="ent0013" data-entity-2="ent0015" data-link-type="dependency" data-source-line="55" id="lnk39"><path d="M719.39,222.7569 C618.19,241.7569 445.5568,274.189 354.5968,291.279" fill="none" id="Document Service-to-Audit Service" style="stroke:#181818;stroke-width:1;"/><polygon fill="#181818" points="348.7,292.3869,358.2838,294.6562,353.614,291.4636,356.8066,286.7938,348.7,292.3869" style="stroke:#181818;stroke-width:1;"/></g><!--link Department Service to Department Repository Adapter--><g class="link" data-entity-1="ent0014" data-entity-2="ent0018" data-link-type="dependency" data-source-line="57" id="lnk40"><path d="M607.15,226.2669 C614.14,265.1069 629.8077,352.1417 636.7877,390.9417" fill="none" id="Department Service-to-Department Repository Adapter" style="stroke:#181818;stroke-width:1;"/><polygon fill="#181818" points="637.85,396.8469,640.1933,387.2808,636.9647,391.9259,632.3197,388.6973,637.85,396.8469" style="stroke:#181818;stroke-width:1;"/></g><!--link Department Service to Audit Service--><g class="link" data-entity-1="ent0014" data-entity-2="ent0015" data-link-type="dependency" data-source-line="58" id="lnk41"><path d="M545.68,226.3669 C489.33,243.3969 410.2633,267.2905 354.4633,284.1605" fill="none" id="Department Service-to-Audit Service" style="stroke:#181818;stroke-width:1;"/><polygon fill="#181818" points="348.72,285.8969,358.4925,287.1212,353.5061,284.4499,356.1773,279.4635,348.72,285.8969" style="stroke:#181818;stroke-width:1;"/></g><!--link Audit Service to Audit Repository Adapter--><g class="link" data-entity-1="ent0015" data-entity-2="ent0020" data-link-type="dependency" data-source-line="60" id="lnk42"><path d="M270.63,322.5969 C245.81,342.9869 209.7448,372.6266 184.9548,393.0066" fill="none" id="Audit Service-to-Audit Repository Adapter" style="stroke:#181818;stroke-width:1;"/><polygon fill="#181818" points="180.32,396.8169,189.8124,394.1913,184.1823,393.6416,184.732,388.0115,180.32,396.8169" style="stroke:#181818;stroke-width:1;"/></g><!--link User Repository Adapter to DB--><g class="link" data-entity-1="ent0017" data-entity-2="ent0022" data-link-type="dependency" data-source-line="62" id="lnk43"><path d="M409.54,433.8569 C431.2,451.4669 459.985,474.8812 483.385,493.9112" fill="none" id="User Repository Adapter-to-DB" style="stroke:#181818;stroke-width:1;"/><polygon fill="#181818" points="488.04,497.6969,483.5813,488.9151,484.1609,494.5422,478.5338,495.1217,488.04,497.6969" style="stroke:#181818;stroke-width:1;"/></g><!--link Department Repository Adapter to DB--><g class="link" data-entity-1="ent0018" data-entity-2="ent0022" data-link-type="dependency" data-source-line="63" id="lnk44"><path d="M619.63,433.8569 C598.14,451.4669 569.6106,474.8636 546.3906,493.8936" fill="none" id="Department Repository Adapter-to-DB" style="stroke:#181818;stroke-width:1;"/><polygon fill="#181818" points="541.75,497.6969,551.2464,495.0858,545.6172,494.5275,546.1754,488.8983,541.75,497.6969" style="stroke:#181818;stroke-width:1;"/></g><!--link Document Repository Adapter to DB--><g class="link" data-entity-1="ent0019" data-entity-2="ent0022" data-link-type="dependency" data-source-line="64" id="lnk45"><path d="M860.22,433.9169 C836.11,441.5569 807.24,450.3669 781,457.4769 C706.62,477.6469 625.3541,495.9873 571.6341,507.6173" fill="none" id="Document Repository Adapter-to-DB" style="stroke:#181818;stroke-width:1;"/><polygon fill="#181818" points="565.77,508.8869,575.4126,510.892,570.6568,507.8289,573.7199,503.0731,565.77,508.8869" style="stroke:#181818;stroke-width:1;"/></g><!--link Audit Repository Adapter to DB--><g class="link" data-entity-1="ent0020" data-entity-2="ent0022" data-link-type="dependency" data-source-line="65" id="lnk46"><path d="M205.54,433.8869 C226.6,441.5669 251.91,450.4069 275,457.4769 C339.82,477.3269 409.8836,494.8853 458.7036,506.5253" fill="none" id="Audit Repository Adapter-to-DB" style="stroke:#181818;stroke-width:1;"/><polygon fill="#181818" points="464.54,507.9169,456.7131,501.9386,459.6763,506.7572,454.8577,509.7205,464.54,507.9169" style="stroke:#181818;stroke-width:1;"/></g><!--link File Storage Adapter to FS--><g class="link" data-entity-1="ent0021" data-entity-2="ent0023" data-link-type="dependency" data-source-line="66" id="lnk47"><path d="M1147,433.8569 C1147,450.0869 1147,489.4569 1147,508.0769" fill="none" id="File Storage Adapter-to-FS" style="stroke:#181818;stroke-width:1;"/><polygon fill="#181818" points="1147,514.0769,1151,505.0769,1147,509.0769,1143,505.0769,1147,514.0769" style="stroke:#181818;stroke-width:1;"/></g><?plantuml-src XLCzJyCm4DtzAqwTOAZ4Y1YGKY0Ig4CXV0o8mJZNOjMr8-S22eZ_ZfEI42Ss7VFUkxjtvnUIf11IPJuWdP-Sd9v1XgAo20ikjgXpk32xmcZK18yIFrYvbRhWbkz0T4H6jMjXKH3N6uMC5QwKRn1crvhGhhd04exkhhBxunbyCO3dfAAt2wF96gNGlZJGGubs15qQKUrS_p6CRZwDYU_1s7O3IJKiJALpRklViJTFzv1AHR-D6XV6oazEqcXO6IL5xJTAYiA1Upv3-oxT9eCLEgnVm0Cw-pxOc_VWfChb0FdsRhYsl2HR2MgU9SbvuHReRBHJxx0mfIHZwuuUpuefEeiHVcyhGhfB8cGERcpsXBEUS-All7JULwQaZSNiTZa3NiBbWgsDoftZsT88hc3OebMa6MFZTC1yVkw_tJWi0KKWEo5LA4fJ7Hj-xUbmTYBU_Qo4tVlnYVkVfkg_BK9nOxwVmVZGGuV4exGot_oXXW7nfE5aoz7omSQHed1EO-gfbUa99xSDsuaLJaRum50KQioYjsqhtKzsmDgVx9zpzgAeaLuHF73Bkj_v1m00?></g></svg>