<?plantuml 1.2026.2?><svg xmlns="http://www.w3.org/2000/svg" xmlns:xlink="http://www.w3.org/1999/xlink" contentStyleType="text/css" data-diagram-type="DESCRIPTION" height="938px" preserveAspectRatio="none" style="width:584px;height:938px;background:#FFFFFF;" version="1.1" viewBox="0 0 584 938" width="584px" zoomAndPan="magnify"><title>Flow F-007: Main Use Cases</title><defs/><g><g class="title" data-source-line="1"><text fill="#000000" font-family="sans-serif" font-size="14" font-weight="bold" lengthAdjust="spacing" textLength="219.8301" x="175.485" y="22.9951">Flow F-007: Main Use Cases</text></g><!--cluster DESOFS Secure API--><g class="cluster" data-qualified-name="DESOFS Secure API" data-source-line="12" id="ent0008"><rect fill="none" height="888" rx="2.5" ry="2.5" style="stroke:#181818;stroke-width:1;" width="272.13" x="306.67" y="44.2969"/><text fill="#000000" font-family="sans-serif" font-size="14" font-weight="bold" lengthAdjust="spacing" textLength="153.1113" x="366.1793" y="59.292">DESOFS Secure API</text></g><!--entity UC_Register--><g class="entity" data-qualified-name="DESOFS Secure API.UC_Register" data-source-line="13" id="ent0009"><ellipse cx="442.7428" cy="158.3005" fill="#F1F1F1" rx="44.2028" ry="14.5236" style="stroke:#181818;stroke-width:0.5;"/><text fill="#000000" font-family="sans-serif" font-size="14" lengthAdjust="spacing" textLength="58.2695" x="413.608" y="162.9489">Register</text></g><!--entity UC_Login--><g class="entity" data-qualified-name="DESOFS Secure API.UC_Login" data-source-line="14" id="ent0010"><ellipse cx="442.7404" cy="94.3005" fill="#F1F1F1" rx="29.8804" ry="14.5236" style="stroke:#181818;stroke-width:0.5;"/><text fill="#000000" font-family="sans-serif" font-size="14" lengthAdjust="spacing" textLength="38.0146" x="423.7331" y="98.9489">Login</text></g><!--entity UC_ViewProfile--><g class="entity" data-qualified-name="DESOFS Secure API.UC_ViewProfile" data-source-line="15" id="ent0011"><ellipse cx="442.744" cy="901.3017" fill="#F1F1F1" rx="60.824" ry="14.5648" style="stroke:#181818;stroke-width:0.5;"/><text fill="#000000" font-family="sans-serif" font-size="14" lengthAdjust="spacing" textLength="82.0654" x="401.7112" y="905.9501">View Profile</text></g><!--entity UC_UpdateProfile--><g class="entity" data-qualified-name="DESOFS Secure API.UC_UpdateProfile" data-source-line="16" id="ent0012"><ellipse cx="442.7357" cy="226.298" fill="#F1F1F1" rx="81.8557" ry="18.7711" style="stroke:#181818;stroke-width:0.5;"/><text fill="#000000" font-family="sans-serif" font-size="14" lengthAdjust="spacing" textLength="135.0303" x="375.2206" y="230.9465">Update Own Profile</text></g><!--entity UC_UploadDoc--><g class="entity" data-qualified-name="DESOFS Secure API.UC_UploadDoc" data-source-line="18" id="ent0013"><ellipse cx="442.7405" cy="541.295" fill="#F1F1F1" rx="78.0405" ry="18.0081" style="stroke:#181818;stroke-width:0.5;"/><text fill="#000000" font-family="sans-serif" font-size="14" lengthAdjust="spacing" textLength="126.0342" x="379.7234" y="545.9434">Upload Document</text></g><!--entity UC_ListDocs--><g class="entity" data-qualified-name="DESOFS Secure API.UC_ListDocs" data-source-line="19" id="ent0014"><ellipse cx="442.739" cy="832.2987" fill="#F1F1F1" rx="83.309" ry="19.0618" style="stroke:#181818;stroke-width:0.5;"/><text fill="#000000" font-family="sans-serif" font-size="14" lengthAdjust="spacing" textLength="138.4141" x="373.532" y="836.9471">List/Get Documents</text></g><!--entity UC_MaintainOwnDoc--><g class="entity" data-qualified-name="DESOFS Secure API.UC_MaintainOwnDoc" data-source-line="20" id="ent0015"><ellipse cx="442.736" cy="306.3001" fill="#F1F1F1" rx="120.066" ry="26.4132" style="stroke:#181818;stroke-width:0.5;"/><text fill="#000000" font-family="sans-serif" font-size="14" lengthAdjust="spacing" textLength="219.4951" x="332.9885" y="310.9485">Replace/Delete Own Document</text></g><!--entity UC_JoinDepartment--><g class="entity" data-qualified-name="DESOFS Secure API.UC_JoinDepartment" data-source-line="22" id="ent0016"><ellipse cx="442.7382" cy="384.3005" fill="#F1F1F1" rx="73.3182" ry="17.0636" style="stroke:#181818;stroke-width:0.5;"/><text fill="#000000" font-family="sans-serif" font-size="14" lengthAdjust="spacing" textLength="114.625" x="385.4257" y="388.949">Join Department</text></g><!--entity UC_ManageDept--><g class="entity" data-qualified-name="DESOFS Secure API.UC_ManageDept" data-source-line="23" id="ent0017"><ellipse cx="442.7435" cy="462.2978" fill="#F1F1F1" rx="111.5335" ry="26.0209" style="stroke:#181818;stroke-width:0.5;"/><text fill="#000000" font-family="sans-serif" font-size="14" lengthAdjust="spacing" textLength="152.9609" x="366.263" y="458.7606">Create/Update/Delete</text><text fill="#000000" font-family="sans-serif" font-size="14" lengthAdjust="spacing" textLength="153.665" x="365.911" y="475.0574">Managed Department</text></g><!--entity UC_ListUsers--><g class="entity" data-qualified-name="DESOFS Secure API.UC_ListUsers" data-source-line="25" id="ent0018"><ellipse cx="442.743" cy="609.3005" fill="#F1F1F1" rx="51.173" ry="14.5236" style="stroke:#181818;stroke-width:0.5;"/><text fill="#000000" font-family="sans-serif" font-size="14" lengthAdjust="spacing" textLength="68.127" x="408.6796" y="613.9489">List Users</text></g><!--entity UC_AdminManageDept--><g class="entity" data-qualified-name="DESOFS Secure API.UC_AdminManageDept" data-source-line="26" id="ent0019"><ellipse cx="442.7374" cy="756.2984" fill="#F1F1F1" rx="99.9574" ry="22.3915" style="stroke:#181818;stroke-width:0.5;"/><text fill="#000000" font-family="sans-serif" font-size="14" lengthAdjust="spacing" textLength="175.9639" x="354.7555" y="760.9468">Manage Any Department</text></g><!--entity UC_AuditRead--><g class="entity" data-qualified-name="DESOFS Secure API.UC_AuditRead" data-source-line="27" id="ent0020"><ellipse cx="442.7364" cy="679.2962" fill="#F1F1F1" rx="88.4964" ry="20.0993" style="stroke:#181818;stroke-width:0.5;"/><text fill="#000000" font-family="sans-serif" font-size="14" lengthAdjust="spacing" textLength="150.3291" x="367.5719" y="683.9446">Access Audit Records</text></g><!--entity Guest--><g class="entity" data-qualified-name="Guest" data-source-line="4" id="ent0002"><ellipse cx="231.9891" cy="121.6469" fill="#F1F1F1" rx="8" ry="8" style="stroke:#181818;stroke-width:0.5;"/><path d="M231.9891,129.6469 L231.9891,156.6469 M218.9891,137.6469 L244.9891,137.6469 M231.9891,156.6469 L218.9891,171.6469 M231.9891,156.6469 L244.9891,171.6469" fill="none" style="stroke:#181818;stroke-width:0.5;"/><text fill="#000000" font-family="sans-serif" font-size="14" lengthAdjust="spacing" textLength="41.1182" x="211.43" y="186.142">Guest</text></g><!--entity User--><g class="entity" data-qualified-name="User" data-source-line="5" id="ent0003"><ellipse cx="73.6519" cy="505.6469" fill="#F1F1F1" rx="8" ry="8" style="stroke:#181818;stroke-width:0.5;"/><path d="M73.6519,513.6469 L73.6519,540.6469 M60.6519,521.6469 L86.6519,521.6469 M73.6519,540.6469 L60.6519,555.6469 M73.6519,540.6469 L86.6519,555.6469" fill="none" style="stroke:#181818;stroke-width:0.5;"/><text fill="#000000" font-family="sans-serif" font-size="14" lengthAdjust="spacing" textLength="135.3037" x="6" y="570.142">Authenticated User</text></g><!--entity Manager--><g class="entity" data-qualified-name="Manager" data-source-line="6" id="ent0004"><ellipse cx="231.9831" cy="459.6469" fill="#F1F1F1" rx="8" ry="8" style="stroke:#181818;stroke-width:0.5;"/><path d="M231.9831,467.6469 L231.9831,494.6469 M218.9831,475.6469 L244.9831,475.6469 M231.9831,494.6469 L218.9831,509.6469 M231.9831,494.6469 L244.9831,509.6469" fill="none" style="stroke:#181818;stroke-width:0.5;"/><text fill="#000000" font-family="sans-serif" font-size="14" lengthAdjust="spacing" textLength="61.3662" x="201.3" y="524.142">Manager</text></g><!--entity Admin--><g class="entity" data-qualified-name="Admin" data-source-line="7" id="ent0005"><ellipse cx="231.9821" cy="649.6469" fill="#F1F1F1" rx="8" ry="8" style="stroke:#181818;stroke-width:0.5;"/><path d="M231.9821,657.6469 L231.9821,684.6469 M218.9821,665.6469 L244.9821,665.6469 M231.9821,684.6469 L218.9821,699.6469 M231.9821,684.6469 L244.9821,699.6469" fill="none" style="stroke:#181818;stroke-width:0.5;"/><text fill="#000000" font-family="sans-serif" font-size="14" lengthAdjust="spacing" textLength="44.8643" x="209.55" y="714.142">Admin</text></g><!--reverse link User to Manager--><g class="link" data-entity-1="ent0003" data-entity-2="ent0004" data-link-type="extension" data-source-line="9" id="lnk6"><path d="M158.6763,510.5702 C179.4163,504.4602 184,503.1269 200.92,498.1469" fill="none" id="User-backto-Manager" style="stroke:#181818;stroke-width:1;"/><polygon fill="none" points="141.41,515.6569,160.3719,516.3257,156.9808,504.8148,141.41,515.6569" style="stroke:#181818;stroke-width:1;"/></g><!--reverse link User to Admin--><g class="link" data-entity-1="ent0003" data-entity-2="ent0005" data-link-type="extension" data-source-line="10" id="lnk7"><path d="M129.7885,586.0828 C159.6285,613.5728 185.31,637.2169 209.2,659.2269" fill="none" id="User-backto-Admin" style="stroke:#181818;stroke-width:1;"/><polygon fill="none" points="116.55,573.8869,125.7232,590.4957,133.8538,581.67,116.55,573.8869" style="stroke:#181818;stroke-width:1;"/></g><!--link Guest to UC_Register--><g class="link" data-entity-1="ent0002" data-entity-2="ent0009" data-link-type="dependency" data-source-line="30" id="lnk21"><path d="M253,151.9669 C286.27,153.0869 347.6933,155.1465 392.2833,156.6365" fill="none" id="Guest-to-UC_Register" style="stroke:#181818;stroke-width:1;"/><polygon fill="#181818" points="398.28,156.8369,389.4186,152.5385,393.2828,156.6699,389.1514,160.5341,398.28,156.8369" style="stroke:#181818;stroke-width:1;"/></g><!--link Guest to UC_Login--><g class="link" data-entity-1="ent0002" data-entity-2="ent0010" data-link-type="dependency" data-source-line="31" id="lnk22"><path d="M252.85,142.8769 C265.75,137.6269 283.01,130.9969 298.67,126.2969 C338.28,114.3969 379.3542,105.8202 408.3742,100.3402" fill="none" id="Guest-to-UC_Login" style="stroke:#181818;stroke-width:1;"/><polygon fill="#181818" points="414.27,99.2269,404.6841,96.9663,409.3568,100.1547,406.1685,104.8274,414.27,99.2269" style="stroke:#181818;stroke-width:1;"/></g><!--link User to UC_ViewProfile--><g class="link" data-entity-1="ent0003" data-entity-2="ent0011" data-link-type="dependency" data-source-line="33" id="lnk23"><path d="M88.12,573.6869 C107.64,625.8469 147.43,720.3669 201.3,788.2969 C236.28,832.3969 248.16,844.4569 298.67,869.2969 C326.08,882.7769 353.3109,889.6647 380.7909,894.2247" fill="none" id="User-to-UC_ViewProfile" style="stroke:#181818;stroke-width:1;"/><polygon fill="#181818" points="386.71,895.2069,378.4862,889.7875,381.7774,894.3884,377.1766,897.6796,386.71,895.2069" style="stroke:#181818;stroke-width:1;"/></g><!--link User to UC_UpdateProfile--><g class="link" data-entity-1="ent0003" data-entity-2="ent0012" data-link-type="dependency" data-source-line="34" id="lnk24"><path d="M93.51,496.9069 C125.96,435.4669 198.66,316.4569 298.67,262.2969 C321.42,249.9769 342.6223,243.0759 367.0623,237.6559" fill="none" id="User-to-UC_UpdateProfile" style="stroke:#181818;stroke-width:1;"/><polygon fill="#181818" points="372.92,236.3569,363.2674,234.4003,368.0386,237.4394,364.9995,242.2106,372.92,236.3569" style="stroke:#181818;stroke-width:1;"/></g><!--link User to UC_UploadDoc--><g class="link" data-entity-1="ent0003" data-entity-2="ent0013" data-link-type="dependency" data-source-line="35" id="lnk25"><path d="M141.64,541.5769 C160.88,543.1069 181.91,544.5369 201.3,545.2969 C256.26,547.4669 312.3334,546.5397 359.6434,544.9397" fill="none" id="User-to-UC_UploadDoc" style="stroke:#181818;stroke-width:1;"/><polygon fill="#181818" points="365.64,544.7369,356.5099,541.0434,360.6429,544.9059,356.7803,549.0388,365.64,544.7369" style="stroke:#181818;stroke-width:1;"/></g><!--link User to UC_ListDocs--><g class="link" data-entity-1="ent0003" data-entity-2="ent0014" data-link-type="dependency" data-source-line="36" id="lnk26"><path d="M92.48,573.8369 C113.81,616.9469 152.8,687.0269 201.3,735.2969 C237.5,771.3169 251.7,776.2669 298.67,796.2969 C323.29,806.7969 345.8008,813.3901 370.7408,819.0901" fill="none" id="User-to-UC_ListDocs" style="stroke:#181818;stroke-width:1;"/><polygon fill="#181818" points="376.59,820.4269,368.7074,814.5222,371.7157,819.3129,366.925,822.3211,376.59,820.4269" style="stroke:#181818;stroke-width:1;"/></g><!--link User to UC_MaintainOwnDoc--><g class="link" data-entity-1="ent0003" data-entity-2="ent0015" data-link-type="dependency" data-source-line="37" id="lnk27"><path d="M103.06,496.7569 C126.78,466.5569 162.83,424.9869 201.3,396.2969 C247.57,361.7869 302.7893,340.8096 351.7593,326.8696" fill="none" id="User-to-UC_MaintainOwnDoc" style="stroke:#181818;stroke-width:1;"/><polygon fill="#181818" points="357.53,325.2269,347.7787,323.8438,352.721,326.5958,349.969,331.5381,357.53,325.2269" style="stroke:#181818;stroke-width:1;"/></g><!--link User to UC_JoinDepartment--><g class="link" data-entity-1="ent0003" data-entity-2="ent0016" data-link-type="dependency" data-source-line="38" id="lnk28"><path d="M112.36,496.8369 C135.95,474.9769 168.09,448.9169 201.3,433.2969 C255.56,407.7869 316.8818,396.2236 366.4518,390.3436" fill="none" id="User-to-UC_JoinDepartment" style="stroke:#181818;stroke-width:1;"/><polygon fill="#181818" points="372.41,389.6369,363.0015,386.7249,367.4448,390.2258,363.9438,394.6692,372.41,389.6369" style="stroke:#181818;stroke-width:1;"/></g><!--link Manager to UC_ManageDept--><g class="link" data-entity-1="ent0004" data-entity-2="ent0017" data-link-type="dependency" data-source-line="40" id="lnk29"><path d="M262.9,485.4269 C284.43,482.6469 308.8296,479.4868 338.4296,475.6568" fill="none" id="Manager-to-UC_ManageDept" style="stroke:#181818;stroke-width:1;"/><polygon fill="#181818" points="344.38,474.8869,334.9411,472.0748,339.4213,475.5285,335.9677,480.0087,344.38,474.8869" style="stroke:#181818;stroke-width:1;"/></g><!--link Manager to UC_UploadDoc--><g class="link" data-entity-1="ent0004" data-entity-2="ent0013" data-link-type="dependency" data-source-line="41" id="lnk30"><path d="M263.05,497.1669 C274.22,500.0669 287.02,503.3669 298.67,506.2969 C328.05,513.6969 355.0602,520.318 381.8502,526.838" fill="none" id="Manager-to-UC_UploadDoc" style="stroke:#181818;stroke-width:1;"/><polygon fill="#181818" points="387.68,528.2569,379.8811,522.2421,382.8218,527.0745,377.9894,530.0152,387.68,528.2569" style="stroke:#181818;stroke-width:1;"/></g><!--link Manager to UC_ListUsers--><g class="link" data-entity-1="ent0004" data-entity-2="ent0018" data-link-type="dependency" data-source-line="42" id="lnk31"><path d="M253.21,527.7769 C264.36,545.4169 279.79,565.0669 298.67,577.2969 C326.44,595.2869 356.9425,602.5439 386.1025,606.0339" fill="none" id="Manager-to-UC_ListUsers" style="stroke:#181818;stroke-width:1;"/><polygon fill="#181818" points="392.06,606.7469,383.5991,601.7057,387.0954,606.1527,382.6484,609.649,392.06,606.7469" style="stroke:#181818;stroke-width:1;"/></g><!--link Admin to UC_ListUsers--><g class="link" data-entity-1="ent0005" data-entity-2="ent0018" data-link-type="dependency" data-source-line="44" id="lnk32"><path d="M254.64,664.5269 C267.05,656.6369 283.21,647.3369 298.67,641.2969 C330.2,628.9869 361.679,621.8568 390.319,616.8668" fill="none" id="Admin-to-UC_ListUsers" style="stroke:#181818;stroke-width:1;"/><polygon fill="#181818" points="396.23,615.8369,386.677,613.4411,391.3042,616.6951,388.0502,621.3223,396.23,615.8369" style="stroke:#181818;stroke-width:1;"/></g><!--link Admin to UC_AdminManageDept--><g class="link" data-entity-1="ent0005" data-entity-2="ent0019" data-link-type="dependency" data-source-line="45" id="lnk33"><path d="M254.75,693.7969 C267.2,701.5969 283.35,710.9069 298.67,717.2969 C321.24,726.7169 340.9565,732.994 364.1265,739.074" fill="none" id="Admin-to-UC_AdminManageDept" style="stroke:#181818;stroke-width:1;"/><polygon fill="#181818" points="369.93,740.5969,362.24,734.4435,365.0937,739.3278,360.2095,742.1815,369.93,740.5969" style="stroke:#181818;stroke-width:1;"/></g><!--link Admin to UC_AuditRead--><g class="link" data-entity-1="ent0005" data-entity-2="ent0020" data-link-type="dependency" data-source-line="46" id="lnk34"><path d="M254.54,679.2969 C278.08,679.2969 311.31,679.2969 347.8,679.2969" fill="none" id="Admin-to-UC_AuditRead" style="stroke:#181818;stroke-width:1;"/><polygon fill="#181818" points="353.8,679.2969,344.8,675.2969,348.8,679.2969,344.8,683.2969,353.8,679.2969" style="stroke:#181818;stroke-width:1;"/></g><!--link Admin to UC_UploadDoc--><g class="link" data-entity-1="ent0005" data-entity-2="ent0013" data-link-type="dependency" data-source-line="47" id="lnk35"><path d="M249.02,640.8469 C259.96,619.1169 276.51,593.2069 298.67,577.2969 C319.58,562.2869 340.2466,554.7428 364.7766,549.6228" fill="none" id="Admin-to-UC_UploadDoc" style="stroke:#181818;stroke-width:1;"/><polygon fill="#181818" points="370.65,548.3969,361.0226,546.3201,365.7555,549.4185,362.6571,554.1514,370.65,548.3969" style="stroke:#181818;stroke-width:1;"/></g><!--link Admin to UC_ListDocs--><g class="link" data-entity-1="ent0005" data-entity-2="ent0014" data-link-type="dependency" data-source-line="48" id="lnk36"><path d="M245.38,717.6669 C255.67,743.5869 272.86,776.5569 298.67,796.2969 C317.79,810.9269 336.3059,818.3417 359.4959,823.5517" fill="none" id="Admin-to-UC_ListDocs" style="stroke:#181818;stroke-width:1;"/><polygon fill="#181818" points="365.35,824.8669,357.4457,818.9913,360.4716,823.7709,355.6921,826.7968,365.35,824.8669" style="stroke:#181818;stroke-width:1;"/></g><?plantuml-src RPDDImCn48Rl-HN3tfTw4qI4qbfHB9KMFGaIad4Dh4b9PYcY_dUJR7OtMNieP9zttin7fgIeHTYqvWIR-kBYyWgsN6buTWWhxj2n5jy9o81LpGU1L1O5AQCPuuACXUgkGqSLS0VnDE1bHn-eIGbEACDrDiQ4mn2ovPetYQVpw9QVIaSXdXWBFhZ-gUinSY8f91J6TUExgTQtXztc00SKdKLOFjrNyCq0EeV2zmJL7XlbQ2XfzJPyvp6Ffaab-83uaQil2a_mPCsxQd482YoXFFJvAFqCO7VISqEl39RIqnekOMr4z-cdE1a2zhGer9U-k4CQezrOjLSyT6NhnvOBNAonnLJLF4jO0F8_huLKkVl1-DrOuv5RoXq1JpGth2pw5XTzfodfg-xVK9wvgLSy9pRlCUvEqLi4ULZlXgN-EdDrN9Fi_iot50ATtxLEAe8z2cFbc2Z2FNB9VXcBAmvrVLDiJK7xLUdNCw5yCN9Uld-f30-Tq_4zSpXxhLoQFGjBVvt9ESvYfapfPy8qTHR7-PyNU3xoKXm7M-0fzxyCiVS_?></g></svg>